<mxfile host="app.diagrams.net" modified="2022-07-08T02:46:55.768Z" agent="5.0 (Windows NT 10.0; Win64; x64) AppleWebKit/537.36 (KHTML, like Gecko) Chrome/103.0.0.0 Safari/537.36" etag="8u9D6Fi-0NVgC9sU-ryj" version="20.0.4" type="github">
  <diagram id="2smShY49FXA9xs--DSBv" name="Page-1">
    <mxGraphModel dx="407" dy="1329" grid="1" gridSize="10" guides="1" tooltips="1" connect="1" arrows="1" fold="1" page="1" pageScale="1" pageWidth="850" pageHeight="1100" math="0" shadow="0">
      <root>
        <mxCell id="0" />
        <mxCell id="1" parent="0" />
        <mxCell id="bQovgauFxb884PiVI1g0-1" value="" style="shape=message;html=1;whiteSpace=wrap;html=1;outlineConnect=0;" vertex="1" parent="1">
          <mxGeometry x="18" y="60" width="60" height="40" as="geometry" />
        </mxCell>
        <mxCell id="bQovgauFxb884PiVI1g0-2" value="" style="verticalLabelPosition=bottom;html=1;verticalAlign=top;align=center;strokeColor=none;fillColor=#B3B3B3;shape=mxgraph.azure.user;" vertex="1" parent="1">
          <mxGeometry x="24.25" y="-10" width="47.5" height="50" as="geometry" />
        </mxCell>
        <mxCell id="bQovgauFxb884PiVI1g0-4" value="Label1" style="text;html=1;strokeColor=#82b366;fillColor=#d5e8d4;align=center;verticalAlign=middle;whiteSpace=wrap;rounded=1;shadow=0;glass=0;sketch=0;strokeWidth=2;fontColor=#333333;" vertex="1" parent="1">
          <mxGeometry x="13" y="110" width="70" height="30" as="geometry" />
        </mxCell>
        <mxCell id="bQovgauFxb884PiVI1g0-5" value="" style="sketch=0;aspect=fixed;pointerEvents=1;shadow=0;dashed=0;html=1;strokeColor=none;labelPosition=center;verticalLabelPosition=bottom;verticalAlign=top;align=center;fillColor=#B3B3B3;shape=mxgraph.mscae.enterprise.lock" vertex="1" parent="1">
          <mxGeometry x="29.5" y="190" width="39" height="50" as="geometry" />
        </mxCell>
        <mxCell id="bQovgauFxb884PiVI1g0-6" value="" style="sketch=0;aspect=fixed;pointerEvents=1;shadow=0;dashed=0;html=1;strokeColor=none;labelPosition=center;verticalLabelPosition=bottom;verticalAlign=top;align=center;fillColor=#B3B3B3;shape=mxgraph.mscae.enterprise.lock_unlocked" vertex="1" parent="1">
          <mxGeometry x="29.5" y="270" width="37" height="50" as="geometry" />
        </mxCell>
        <mxCell id="bQovgauFxb884PiVI1g0-7" value="" style="sketch=0;pointerEvents=1;shadow=0;dashed=0;html=1;strokeColor=none;fillColor=#505050;labelPosition=center;verticalLabelPosition=bottom;verticalAlign=top;outlineConnect=0;align=center;shape=mxgraph.office.concepts.sign_up;" vertex="1" parent="1">
          <mxGeometry x="29.5" y="340" width="51" height="47" as="geometry" />
        </mxCell>
        <mxCell id="bQovgauFxb884PiVI1g0-8" value="" style="shape=image;html=1;verticalAlign=top;verticalLabelPosition=bottom;labelBackgroundColor=#ffffff;imageAspect=0;aspect=fixed;image=https://cdn3.iconfinder.com/data/icons/user-interface-set-10/128/A-10-128.png;imageBackground=default;" vertex="1" parent="1">
          <mxGeometry x="25.25" y="420" width="48" height="48" as="geometry" />
        </mxCell>
        <mxCell id="bQovgauFxb884PiVI1g0-9" value="" style="points=[[0,0.5,0],[0.24,0,0],[0.5,0.28,0],[0.995,0.475,0],[0.5,0.72,0],[0.24,1,0]];verticalLabelPosition=bottom;sketch=0;html=1;verticalAlign=top;aspect=fixed;align=center;pointerEvents=1;shape=mxgraph.cisco19.key;fillColor=#B3B3B3;strokeColor=none;direction=south;rotation=45;strokeWidth=1;perimeterSpacing=0;" vertex="1" parent="1">
          <mxGeometry x="36.5" y="476.25" width="22.5" height="50" as="geometry" />
        </mxCell>
        <mxCell id="bQovgauFxb884PiVI1g0-10" value="" style="edgeStyle=segmentEdgeStyle;endArrow=classic;html=1;startSize=6;strokeWidth=5;curved=1;targetPerimeterSpacing=0;" edge="1" parent="1">
          <mxGeometry width="50" height="50" relative="1" as="geometry">
            <mxPoint x="25.25" y="550" as="sourcePoint" />
            <mxPoint x="185.25" y="550" as="targetPoint" />
          </mxGeometry>
        </mxCell>
        <mxCell id="bQovgauFxb884PiVI1g0-11" value="Label2" style="text;html=1;strokeColor=none;fillColor=none;align=center;verticalAlign=middle;whiteSpace=wrap;rounded=0;shadow=0;glass=0;labelBorderColor=none;sketch=0;fontColor=#333333;fontSize=14;" vertex="1" parent="1">
          <mxGeometry x="18" y="150" width="60" height="30" as="geometry" />
        </mxCell>
        <mxCell id="bQovgauFxb884PiVI1g0-12" value="" style="shape=message;html=1;whiteSpace=wrap;html=1;outlineConnect=0;" vertex="1" parent="1">
          <mxGeometry x="110" y="60" width="60" height="40" as="geometry" />
        </mxCell>
        <mxCell id="bQovgauFxb884PiVI1g0-14" value="" style="sketch=0;aspect=fixed;pointerEvents=1;shadow=0;dashed=0;html=1;strokeColor=none;labelPosition=center;verticalLabelPosition=bottom;verticalAlign=top;align=center;fillColor=#B3B3B3;shape=mxgraph.mscae.enterprise.lock" vertex="1" parent="1">
          <mxGeometry x="132.2" y="70" width="15.6" height="20" as="geometry" />
        </mxCell>
      </root>
    </mxGraphModel>
  </diagram>
</mxfile>
